<svg width="256" height="256" fill="none" xmlns="http://www.w3.org/2000/svg">
  <path fill="#EFDA5A" d="M0 0h256v256H0z"/>
  <path d="M230.908 206.656c0 5.376-1.323 10.069-3.968 14.08-2.645 4.011-6.485 7.125-11.52 9.344-4.949 2.133-11.008 3.2-18.176 3.2-3.157 0-6.272-.213-9.344-.64a71.503 71.503 0 0 1-8.704-1.792 57.034 57.034 0 0 1-7.808-3.072v-18.048a209.326 209.326 0 0 0 13.44 5.248c4.693 1.536 9.344 2.304 13.952 2.304 3.157 0 5.675-.427 7.552-1.28 1.963-.853 3.371-2.005 4.224-3.456.939-1.451 1.408-3.115 1.408-4.992 0-2.304-.811-4.267-2.432-5.888-1.536-1.621-3.627-3.115-6.272-4.48-2.645-1.451-5.675-2.987-9.088-4.608a138.828 138.828 0 0 1-6.912-3.584c-2.475-1.451-4.864-3.2-7.168-5.248-2.219-2.133-4.053-4.693-5.504-7.68-1.451-2.987-2.176-6.571-2.176-10.752 0-5.461 1.237-10.112 3.712-13.952 2.56-3.925 6.144-6.912 10.752-8.96 4.693-2.048 10.197-3.072 16.512-3.072 4.779 0 9.301.555 13.568 1.664 4.352 1.109 8.875 2.688 13.568 4.736l-6.272 15.104c-4.181-1.707-7.936-3.029-11.264-3.968a37.527 37.527 0 0 0-10.24-1.408c-2.389 0-4.437.384-6.144 1.152-1.707.768-3.029 1.835-3.968 3.2-.853 1.365-1.28 2.987-1.28 4.864 0 2.133.64 3.968 1.92 5.504 1.28 1.451 3.2 2.859 5.76 4.224 2.56 1.365 5.76 2.987 9.6 4.864 4.693 2.219 8.661 4.523 11.904 6.912 3.328 2.389 5.888 5.205 7.68 8.448 1.792 3.243 2.688 7.253 2.688 12.032ZM160.408 206.656c0 5.376-1.323 10.069-3.968 14.08-2.645 4.011-6.485 7.125-11.52 9.344-4.949 2.133-11.008 3.2-18.176 3.2-3.157 0-6.272-.213-9.344-.64a71.503 71.503 0 0 1-8.704-1.792 57.034 57.034 0 0 1-7.808-3.072v-18.048a209.326 209.326 0 0 0 13.44 5.248c4.693 1.536 9.344 2.304 13.952 2.304 3.157 0 5.675-.427 7.552-1.28 1.963-.853 3.371-2.005 4.224-3.456.939-1.451 1.408-3.115 1.408-4.992 0-2.304-.811-4.267-2.432-5.888-1.536-1.621-3.627-3.115-6.272-4.48-2.645-1.451-5.675-2.987-9.088-4.608a138.828 138.828 0 0 1-6.912-3.584c-2.475-1.451-4.864-3.2-7.168-5.248-2.219-2.133-4.053-4.693-5.504-7.68-1.451-2.987-2.176-6.571-2.176-10.752 0-5.461 1.237-10.112 3.712-13.952 2.56-3.925 6.144-6.912 10.752-8.96 4.693-2.048 10.197-3.072 16.512-3.072 4.779 0 9.301.555 13.568 1.664 4.352 1.109 8.875 2.688 13.568 4.736l-6.272 15.104c-4.181-1.707-7.936-3.029-11.264-3.968a37.527 37.527 0 0 0-10.24-1.408c-2.389 0-4.437.384-6.144 1.152-1.707.768-3.029 1.835-3.968 3.2-.853 1.365-1.28 2.987-1.28 4.864 0 2.133.64 3.968 1.92 5.504 1.28 1.451 3.2 2.859 5.76 4.224 2.56 1.365 5.76 2.987 9.6 4.864 4.693 2.219 8.661 4.523 11.904 6.912 3.328 2.389 5.888 5.205 7.68 8.448 1.792 3.243 2.688 7.253 2.688 12.032Z" fill="#323230"/>
</svg>
