<svg xmlns="http://www.w3.org/2000/svg" width="512" height="512" viewBox="0 0 512 512">
  <path fill="#EFDA5A" d="M.001 0h512v512h-512z"/>
  <path fill="#323230" d="M417.19 248.703v90.167h-53.039v-90.167l-48.268-.001V470.92h48.268v-82.353h53.039v82.353h48.266V248.703zM251.15 292.803c13.103 0 25.25 3.829 33.133 7.042l3.491 1.423v-43.044l-1.375-.708c-13.905-7.155-28.644-10.783-43.804-10.783-20.748 0-38.244 7.035-46.922 13.058-13.592 9.429-24.204 23.328-31.541 41.313-7.17 17.583-10.656 36.406-10.656 57.545v3.994c0 20.741 3.386 38.704 10.656 56.532 7.337 17.986 17.949 31.886 31.54 41.312 8.678 6.023 26.174 13.06 46.923 13.06h.001c15.159 0 29.897-3.628 43.802-10.784l1.375-.707v-43.043l-3.491 1.423c-10.601 4.32-21.987 6.7-32.06 6.7h-.004c-22.216 0-38.014-10.608-46.949-31.527-5.133-12.018-7.362-22.792-7.226-34.989-.145-12.96 2.286-25.394 7.226-36.958 8.746-20.478 24.182-30.859 45.881-30.859z"/>
</svg>
