<svg width="363" height="263" viewBox="0 0 363 263" xmlns="http://www.w3.org/2000/svg"><g fill="none" fill-rule="evenodd"><path stroke="#979797" stroke-width="3" fill="#D8D8D8" d="M55 55h300v200H55z"/><path d="M55 155.5h300M155 55v200M255 55v200" stroke="#979797" stroke-width="3" stroke-linecap="square"/><text font-size="24" font-weight="300" fill="#F6A623" transform="translate(4 4)"><tspan x="43.116" y="38">1</tspan></text><text font-size="24" font-weight="300" fill="#F6A623" transform="translate(4 4)"><tspan x="25.116" y="62">1</tspan></text><text font-size="24" font-weight="300" fill="#F6A623" transform="translate(4 4)"><tspan x="25.116" y="159">2</tspan></text><text font-size="24" font-weight="300" fill="#F6A623" transform="translate(4 4)"><tspan x="25.116" y="258">3</tspan></text><text font-size="24" font-weight="300" fill="#F6A623" transform="translate(4 4)"><tspan x="144.116" y="38">2</tspan></text><text font-size="24" font-weight="300" fill="#F6A623" transform="translate(4 4)"><tspan x="244.116" y="38">3</tspan></text><text font-size="24" font-weight="300" fill="#F6A623" transform="translate(4 4)"><tspan x="343.068" y="38">4</tspan></text><path d="M5 55v200M5 255l3-10.8H2L5 255zM55 5h300M355 5l-10.8-3v6L355 5z" stroke="#F6A623" stroke-width="3" stroke-linecap="square"/></g></svg>
