<svg width="256" height="256" viewBox="0 0 256 256" xmlns="http://www.w3.org/2000/svg">
  <title>facebook</title>
  <path d="M196.938 19c11.31 0 20.982 4.016 29.014 12.048S238 48.75 238 60.063v136.875c0 11.31-4.016 20.982-12.048 29.014S208.25 238 196.938 238h-26.805v-84.834h28.373l4.277-33.078h-32.65V98.986c0-5.323 1.117-9.315 3.35-11.976 2.234-2.662 6.583-3.992 13.046-3.992l17.395-.143V53.361c-5.988-.855-14.448-1.283-25.38-1.283-12.926 0-23.263 3.802-31.01 11.406-7.747 7.605-11.62 18.345-11.62 32.223v24.38h-28.516v33.079h28.516V238H60.063c-11.312 0-20.983-4.016-29.015-12.048S19 208.25 19 196.938V60.063c0-11.312 4.016-20.983 12.048-29.015S48.75 19 60.063 19h136.875z" fill="#3B5998" fill-rule="evenodd"/>
</svg>
