<svg width="256" height="256" viewBox="0 0 256 256" xmlns="http://www.w3.org/2000/svg">
  <title>google-plus</title>
  <path d="M149.744 129.783c0-2.471-.285-5.513-.855-9.125H97.275v18.82h30.94c-.285 2.282-1.07 4.658-2.353 7.13-1.283 2.47-3.065 4.99-5.346 7.556-2.282 2.566-5.442 4.681-9.482 6.345-4.04 1.663-8.626 2.495-13.759 2.495-9.41 0-17.442-3.374-24.095-10.123-6.654-6.749-9.98-14.876-9.98-24.381s3.326-17.632 9.98-24.38c6.653-6.75 14.685-10.124 24.095-10.124 8.745 0 16.017 2.804 21.815 8.412l14.828-14.4c-10.266-9.505-22.48-14.258-36.643-14.258-15.208 0-28.135 5.347-38.78 16.04-10.647 10.693-15.97 23.597-15.97 38.71s5.323 28.017 15.97 38.71c10.645 10.693 23.572 16.04 38.78 16.04 15.684 0 28.35-4.99 37.997-14.97 9.648-9.981 14.472-22.813 14.472-38.497zm49.19 6.559h15.54v-15.684h-15.54v-15.683H183.25v15.683h-15.684v15.684h15.684v15.683h15.684v-15.683zM238 60.062v136.875c0 11.312-4.016 20.983-12.048 29.015S208.25 238 196.938 238H60.063c-11.312 0-20.983-4.016-29.015-12.048S19 208.25 19 196.938V60.063c0-11.312 4.016-20.983 12.048-29.015S48.75 19 60.063 19h136.875c11.31 0 20.982 4.016 29.014 12.048S238 48.75 238 60.063z" fill="#DC4E41" fill-rule="evenodd"/>
</svg>
