<svg width="256" height="256" viewBox="0 0 256 256" xmlns="http://www.w3.org/2000/svg">
  <title>heart</title>
  <path d="M128 238c-2.476 0-4.571-.855-6.286-2.566l-89.143-85.832c-.952-.76-2.261-1.997-3.928-3.707-1.667-1.711-4.31-4.824-7.929-9.34a126.169 126.169 0 0 1-9.714-13.9c-2.857-4.753-5.405-10.504-7.643-17.253C1.12 98.654 0 92.095 0 85.727c0-20.912 6.048-37.26 18.143-49.047C30.238 24.893 46.953 19 68.286 19c5.904 0 11.928 1.022 18.071 3.065 6.143 2.044 11.857 4.8 17.143 8.27 5.286 3.47 9.833 6.725 13.643 9.767A131.537 131.537 0 0 1 128 49.797a131.537 131.537 0 0 1 10.857-9.695c3.81-3.042 8.357-6.298 13.643-9.767 5.286-3.47 11-6.226 17.143-8.27C175.786 20.022 181.81 19 187.714 19c21.334 0 38.048 5.893 50.143 17.68C249.952 48.466 256 64.815 256 85.727c0 21.006-10.905 42.393-32.714 64.16l-89 85.547c-1.715 1.71-3.81 2.566-6.286 2.566z" fill="#e2007a" fill-rule="evenodd"/>
</svg>
