<svg width="256" height="256" fill="none" xmlns="http://www.w3.org/2000/svg">
  <path fill="#EFDA5A" d="M0 0h256v256H0z"/>
  <path d="M239.317 201.736c0 7.056-1.736 13.216-5.208 18.48-3.472 5.264-8.512 9.352-15.12 12.264-6.496 2.8-14.448 4.2-23.856 4.2-4.144 0-8.232-.28-12.264-.84a93.782 93.782 0 0 1-11.424-2.352 74.97 74.97 0 0 1-10.248-4.032v-23.688a274.74 274.74 0 0 0 17.64 6.888c6.16 2.016 12.264 3.024 18.312 3.024 4.144 0 7.448-.56 9.912-1.68 2.576-1.12 4.424-2.632 5.544-4.536 1.232-1.904 1.848-4.088 1.848-6.552 0-3.024-1.064-5.6-3.192-7.728-2.016-2.128-4.76-4.088-8.232-5.88-3.472-1.904-7.448-3.92-11.928-6.048a181.46 181.46 0 0 1-9.072-4.704c-3.248-1.904-6.384-4.2-9.408-6.888-2.912-2.8-5.32-6.16-7.224-10.08s-2.856-8.624-2.856-14.112c0-7.168 1.624-13.272 4.872-18.312 3.36-5.152 8.064-9.072 14.112-11.76 6.16-2.688 13.384-4.032 21.672-4.032 6.272 0 12.208.728 17.808 2.184 5.712 1.456 11.648 3.528 17.808 6.216l-8.232 19.824c-5.488-2.24-10.416-3.976-14.784-5.208a49.273 49.273 0 0 0-13.44-1.848c-3.136 0-5.824.504-8.064 1.512s-3.976 2.408-5.208 4.2c-1.12 1.792-1.68 3.92-1.68 6.384 0 2.8.84 5.208 2.52 7.224 1.68 1.904 4.2 3.752 7.56 5.544 3.36 1.792 7.56 3.92 12.6 6.384 6.16 2.912 11.368 5.936 15.624 9.072 4.368 3.136 7.728 6.832 10.08 11.088 2.352 4.256 3.528 9.52 3.528 15.792ZM146.786 201.736c0 7.056-1.736 13.216-5.209 18.48-3.471 5.264-8.511 9.352-15.119 12.264-6.496 2.8-14.449 4.2-23.857 4.2-4.144 0-8.231-.28-12.263-.84a93.782 93.782 0 0 1-11.424-2.352 74.97 74.97 0 0 1-10.249-4.032v-23.688a274.74 274.74 0 0 0 17.64 6.888c6.16 2.016 12.264 3.024 18.312 3.024 4.144 0 7.449-.56 9.912-1.68 2.576-1.12 4.424-2.632 5.544-4.536 1.232-1.904 1.848-4.088 1.848-6.552 0-3.024-1.064-5.6-3.192-7.728-2.016-2.128-4.759-4.088-8.231-5.88-3.473-1.904-7.449-3.92-11.928-6.048a181.46 181.46 0 0 1-9.072-4.704c-3.249-1.904-6.385-4.2-9.409-6.888-2.912-2.8-5.32-6.16-7.224-10.08-1.903-3.92-2.855-8.624-2.855-14.112 0-7.168 1.623-13.272 4.871-18.312 3.36-5.152 8.064-9.072 14.112-11.76 6.16-2.688 13.384-4.032 21.672-4.032 6.272 0 12.209.728 17.808 2.184 5.712 1.456 11.649 3.528 17.809 6.216l-8.233 19.824c-5.487-2.24-10.416-3.976-14.784-5.208a49.273 49.273 0 0 0-13.44-1.848c-3.136 0-5.823.504-8.063 1.512s-3.977 2.408-5.209 4.2c-1.12 1.792-1.68 3.92-1.68 6.384 0 2.8.84 5.208 2.52 7.224 1.68 1.904 4.201 3.752 7.561 5.544 3.36 1.792 7.56 3.92 12.6 6.384 6.16 2.912 11.367 5.936 15.623 9.072 4.368 3.136 7.729 6.832 10.081 11.088 2.352 4.256 3.528 9.52 3.528 15.792Z" fill="#323230"/>
</svg>
