<svg width="256" height="256" viewBox="0 0 256 256" xmlns="http://www.w3.org/2000/svg">
  <title>rss</title>
  <path d="M82.811 201.59c0 7.615-2.664 14.086-7.993 19.416-5.329 5.33-11.8 7.994-19.412 7.994-7.613 0-14.084-2.665-19.413-7.994C30.664 215.676 28 209.205 28 201.59c0-7.614 2.664-14.085 7.993-19.415 5.33-5.33 11.8-7.994 19.413-7.994 7.612 0 14.083 2.665 19.412 7.994 5.329 5.33 7.993 11.801 7.993 19.415zm73.082 17.56c.19 2.665-.619 4.949-2.427 6.852-1.713 1.999-3.949 2.998-6.709 2.998h-19.27c-2.378 0-4.424-.785-6.137-2.355-1.713-1.57-2.664-3.546-2.855-5.925-2.093-21.794-10.871-40.423-26.335-55.889-15.463-15.465-34.09-24.244-55.881-26.338-2.38-.19-4.354-1.142-5.924-2.855-1.57-1.713-2.355-3.76-2.355-6.139v-19.272c0-2.76 1-4.996 2.997-6.71 1.618-1.617 3.664-2.426 6.138-2.426h.714c15.225 1.237 29.784 5.068 43.677 11.492 13.894 6.424 26.217 15.06 36.97 25.91 10.847 10.754 19.483 23.079 25.906 36.974 6.423 13.895 10.254 28.456 11.49 43.683zm73.081.285c.19 2.57-.666 4.806-2.57 6.71-1.712 1.903-3.9 2.855-6.565 2.855h-20.412c-2.474 0-4.59-.833-6.351-2.498-1.76-1.666-2.689-3.688-2.784-6.067-1.142-20.462-5.947-39.9-14.416-58.316-8.47-18.416-19.484-34.404-33.044-47.966-13.56-13.562-29.546-24.578-47.96-33.048-18.413-8.47-37.849-13.324-58.308-14.561-2.379-.095-4.4-1.023-6.066-2.784C28.833 62 28 59.93 28 57.55V37.136c0-2.664.952-4.853 2.855-6.566 1.713-1.713 3.806-2.57 6.28-2.57h.428c24.932 1.237 48.793 6.947 71.583 17.13 22.79 10.184 43.035 24.174 60.735 41.97 17.794 17.703 31.783 37.95 41.965 60.743 10.182 22.794 15.891 46.658 17.128 71.592z" fill="#666" fill-rule="evenodd"/>
</svg>
