<svg width="256" height="256" viewBox="0 0 256 256" xmlns="http://www.w3.org/2000/svg">
  <title>twitter</title>
  <path d="M201.5 87.723c-5.323 2.376-11.074 3.992-17.252 4.847 6.464-3.802 10.884-9.362 13.26-16.681-6.179 3.612-12.547 6.035-19.106 7.271-5.798-6.273-13.07-9.41-21.814-9.41-8.27 0-15.327 2.923-21.173 8.769-5.846 5.845-8.769 12.903-8.769 21.172 0 2.757.238 5.038.713 6.844-12.261-.665-23.763-3.754-34.504-9.267-10.74-5.513-19.865-12.88-27.375-22.1-2.756 4.753-4.134 9.79-4.134 15.113 0 10.836 4.325 19.153 12.974 24.951-4.467-.095-9.22-1.33-14.257-3.707v.286c0 7.128 2.376 13.473 7.128 19.034 4.753 5.56 10.599 9.006 17.538 10.337-2.757.76-5.18 1.14-7.272 1.14-1.236 0-3.09-.19-5.56-.57 1.996 5.988 5.536 10.93 10.622 14.828 5.085 3.897 10.86 5.893 17.323 5.988-11.026 8.555-23.43 12.832-37.213 12.832-2.471 0-4.848-.142-7.129-.427 14.068 8.935 29.371 13.402 45.91 13.402 10.646 0 20.626-1.687 29.942-5.062 9.315-3.374 17.299-7.889 23.953-13.544a89.924 89.924 0 0 0 17.18-19.534c4.8-7.366 8.365-15.065 10.694-23.097 2.328-8.032 3.493-16.04 3.493-24.025 0-1.71-.048-2.994-.143-3.85 5.989-4.277 10.979-9.457 14.971-15.54zm36.5-27.66v136.875c0 11.31-4.016 20.982-12.048 29.014S208.25 238 196.938 238H60.063c-11.312 0-20.983-4.016-29.015-12.048S19 208.25 19 196.938V60.063c0-11.312 4.016-20.983 12.048-29.015S48.75 19 60.063 19h136.875c11.31 0 20.982 4.016 29.014 12.048S238 48.75 238 60.063z" fill="#55ACEE" fill-rule="evenodd"/>
</svg>
