<?xml version="1.0" encoding="utf-8"?>
<!-- Generator: Adobe Illustrator 16.0.0, SVG Export Plug-In . SVG Version: 6.00 Build 0)  -->
<!DOCTYPE svg PUBLIC "-//W3C//DTD SVG 1.1//EN" "http://www.w3.org/Graphics/SVG/1.1/DTD/svg11.dtd">
<svg version="1.1" id="レイヤー_1" xmlns="http://www.w3.org/2000/svg" xmlns:xlink="http://www.w3.org/1999/xlink" x="0px"
	 y="0px" width="512px" height="512px" viewBox="0 0 512 512" enable-background="new 0 0 512 512" xml:space="preserve">
<rect x="0.001" y="0" fill="#EFDA5A" width="512" height="512"/>
<polygon fill="#323230" points="417.19,248.703 417.19,338.87 364.151,338.87 364.151,248.703 315.883,248.702 315.883,470.92 
	364.151,470.92 364.151,388.567 417.19,388.567 417.19,470.92 465.456,470.92 465.456,248.703 "/>
<path fill="#323230" d="M251.15,292.803c13.103,0,25.25,3.829,33.133,7.042l3.491,1.423v-43.044l-1.375-0.708
	c-13.905-7.155-28.644-10.783-43.804-10.783c-20.748,0-38.244,7.035-46.922,13.058c-13.592,9.429-24.204,23.328-31.541,41.313
	c-7.17,17.583-10.656,36.406-10.656,57.545v3.994c0,20.741,3.386,38.704,10.656,56.532c7.337,17.986,17.949,31.886,31.54,41.312
	c8.678,6.023,26.174,13.06,46.923,13.06c0,0,0,0,0.001,0c15.159,0,29.897-3.628,43.802-10.784l1.375-0.707v-43.043l-3.491,1.423
	c-10.601,4.32-21.987,6.7-32.06,6.7c-0.003,0-0.002,0-0.004,0c-22.216,0-38.014-10.608-46.949-31.527
	c-5.133-12.018-7.362-22.792-7.226-34.989c-0.145-12.96,2.286-25.394,7.226-36.958C214.015,303.184,229.451,292.803,251.15,292.803z
	"/>
</svg>
